<?xml version="1.0" encoding="utf-8" ?><svg xmlns="http://www.w3.org/2000/svg" xmlns:xlink="http://www.w3.org/1999/xlink" width="1024" height="1024" viewBox="0 0 1024 1024"><path d="M511.266 159.25C515.97 158.373 566.681 170.141 575.473 172.065L826.14 226.459L901.078 242.211C917.065 245.509 939.196 249.551 954.379 254.51C952.512 268.153 949.102 280.948 945.747 294.265C942.463 307.261 939.248 320.273 936.101 333.303L899.777 482.733L851.536 682.399L834.178 753.801C831.425 765.04 829.225 776.792 825.823 787.796C819.117 789.093 803.542 794.208 796.263 796.369L737.678 813.609C663.266 835.799 588.714 857.516 514.026 878.757C505.45 877.797 480.419 870.226 471.296 867.536L396.666 845.425L267.77 807.963C245.11 801.382 219.287 794.781 197.321 787.057C191.94 766.32 187.205 744.757 182.115 723.823L148.514 585.384L69.8937 254.49L69.7904 254.055C74.7067 252.046 86.0899 249.886 91.5866 248.748L127.51 241.308L261.493 212.435L437.415 174.569L482.301 164.81C490.044 163.099 503.619 159.757 511.266 159.25Z"/><path d="M509.303 166.187C523.703 166.408 552.035 173.715 567.105 177.094L639.716 192.82L943.821 258.334C935.376 269.658 926.535 279.745 917.378 290.498L885.307 328.346L767.534 467.78C742.95 496.769 716.657 525.817 693.854 556.169C687.673 543.903 678.231 529.053 671.145 516.94L629.363 445.24L561.003 328.534C545.413 301.891 530.294 275.123 514.061 248.845C512.961 248.383 513.267 248.548 511.959 248.551C509.373 249.846 507.294 253.059 505.819 255.542C497.431 269.667 489.159 283.957 480.876 298.141L432.935 380.207L368.6 490.301C355.553 512.105 342.764 534.063 330.237 556.17C309.144 528.37 282.72 499.087 260.001 472.196L149.105 340.531C133.826 322.773 118.699 304.885 103.727 286.868C96.38 278.068 87.0007 267.372 80.2929 258.294C89.0122 256.17 99.2341 254.317 108.15 252.394L169.961 239.024L359.224 198.198C390.099 191.701 420.921 184.957 451.687 177.965C467.026 174.538 494.424 167.787 509.303 166.187Z"/><path d="M692.798 568.29C698.191 575.441 705.147 588.198 709.727 596.146L735.553 640.97C762.552 687.911 789.832 734.69 817.391 781.305C817.518 782.11 817.543 781.652 817.069 782.642C812.678 785.079 795.903 789.51 790.028 791.216L743.226 804.983L595.038 848.477C567.59 856.517 539.83 863.868 512.675 872.874C483.114 863.218 453.481 855.231 423.638 846.625L290.324 807.733C262.022 799.485 234.242 791.915 206.102 783.01C228.202 743.061 252.488 703.825 275.163 664.126L308.889 605.433C315.8 593.532 323.548 579.403 331.566 568.455C335.636 572.311 342.258 580.95 345.902 585.471L367.807 612.315L465.161 730.252C472.695 739.295 480.141 748.411 487.499 757.598C495.439 767.515 502.788 777.274 512.163 785.919C521.817 776.19 530.373 765.078 539.038 754.429L573.837 711.888L692.798 568.29Z"/><path fill="#FEFEFE" d="M511.567 258.283C514.275 259.773 551.781 325.458 556.316 333.225L640.498 476.881C657.081 505.264 672.596 533.187 689.884 561.209C669.997 584.194 649.482 609.694 630.012 633.228C590.614 680.847 551.461 728.669 512.555 776.691C503.309 767.925 495.551 757.556 487.589 747.644C478.077 735.808 468.473 724.047 458.778 712.361C416.739 662.36 375.262 611.89 334.353 560.961C339.83 549.665 349.857 533.56 356.436 522.441L394.669 457.826L511.567 258.283Z"/><path d="M511.067 296.733C511.426 296.852 511.782 296.978 512.135 297.112C516.8 298.914 519.337 310.775 520.914 315.753L528.601 340.101C538.25 370.707 548.028 403.6 560.455 433.01C555.297 448.615 549.828 464.116 544.053 479.504L533.407 479.558C530.775 487.025 528.319 494.553 526.041 502.136L531.521 516.467C528.131 528.503 522.958 542.071 518.728 553.946C525.382 550.43 534.168 544.437 540.61 540.319C553.71 531.946 566.301 523.634 579.759 515.788C591.057 522.318 603.474 530.076 614.582 536.96C624.414 543.053 642.598 554.431 650.771 562.615C641.179 570.858 626.358 580.435 615.738 587.251C605.461 593.847 590.859 603.127 579.766 607.988C570.462 603.806 563.012 598.603 554.479 593.103C543.367 585.79 532.123 578.678 520.755 571.769C524.126 580.9 529.951 591.936 534.329 600.778C542.248 616.946 550.454 632.972 558.941 648.849C550.354 665.211 541.904 681.644 533.591 698.147C531.116 703.179 515.419 738.542 511.317 738.889L510.052 737.712C503.992 728.811 500.961 719.528 496.014 710.255C485.064 689.733 474.712 669.995 465.431 648.616C477.265 622.561 492.275 597.919 503.417 571.828C494.772 576.349 487.177 581.552 478.965 586.741C467.355 593.954 455.845 601.327 444.439 608.858C433.733 603.178 421.319 595.02 410.829 588.464C398.775 580.93 382.587 571.605 372.42 562.337C381.843 554.45 392.292 548.069 402.683 541.561C416.397 532.908 430.271 524.511 444.297 516.373C452.047 519.931 462.1 526.568 469.336 531.224C481.691 539.199 493.974 547.284 506.183 555.48C491.149 514.814 478.133 473.862 462.763 433.055C466.57 418.016 472.702 402.163 478.096 387.552L487.514 387.553C489.738 379.878 492.852 371.944 495.68 364.465C493.526 359.299 491.541 353.674 489.579 348.403C497.618 330.395 501.638 314.523 511.067 296.733Z"/><path d="M511.289 572.238C515.527 575.016 547.231 640.426 551.63 649.281C538.471 674.972 525.569 700.793 512.924 726.741L512.617 726.768C509.247 724.57 477.514 659.126 472.663 649.712L511.289 572.238Z"/><path d="M579.3 523.418C586.167 526.432 597.208 533.946 603.844 538.191C616.466 546.21 629.041 554.3 641.57 562.462C621.771 575.42 601.827 588.156 581.743 600.668C577.982 602.602 525.662 566.598 519.456 562.38C539.186 549.06 559.137 536.071 579.3 523.418Z"/><path d="M444.295 523.41C450.726 526.691 460.129 533.081 466.343 537.082C479.33 545.401 492.223 553.865 505.019 562.474C499.357 567.151 487.713 574.031 481.296 578.036L443.672 601.669C436.132 596.048 428.04 591.335 420.094 586.339C407.629 578.511 395.219 570.595 382.866 562.592C401.502 549.746 424.764 535.867 444.295 523.41Z"/><path d="M511.236 312.394C516.682 318.888 548.442 418.152 553.485 433.87C551.737 439.099 544.259 462.319 541.696 464.937L540.991 464.406C535.716 451.128 530.736 437.15 525.591 423.749L496.619 348.717C501.166 336.481 506.04 324.368 511.236 312.394Z"/><path d="M479.793 403.363C484.952 408.659 520.103 505.005 524.909 517.866C520.629 527.78 517.089 538.189 513.01 548.249L512.498 549.024L511.697 548.954C505.222 540.647 475.244 448.682 469.799 432.734C472.784 422.829 476.117 413.033 479.793 403.363Z"/><path fill="#FEFEFE" d="M509.104 403.191C512.992 405.448 519.591 427.735 521.449 433.431C519.195 443.033 515.973 454.651 512.645 463.897C508.861 461.25 501.962 439.388 500.298 434.465C503.05 423.805 505.681 413.649 509.104 403.191Z"/><path fill="#FEFEFE" d="M485.345 393.079C492.042 392.911 498.744 393.043 505.43 393.474C503.311 402.263 501.067 411.022 498.698 419.747L496.983 426.378C493.227 419.118 486.521 400.881 485.345 393.079Z"/><path fill="#FEFEFE" d="M525.165 443.878C528.861 448.448 535.042 467.122 537.425 473.821L529.466 473.547L516.253 473.461C519.26 463.361 521.36 453.872 525.165 443.878Z"/><path fill="#FEFEFE" d="M517.571 479.626L528.072 480.046L524.499 488.693C523.642 490.254 524.224 489.671 522.74 490.557L521.669 490.232C518.903 487.548 517.764 483.384 517.571 479.626Z"/><path fill="#FEFEFE" d="M498.554 374.736C501.142 377.005 502.856 383.092 504.036 386.531C502.053 386.793 499.953 386.955 497.952 387.145C495.958 387.275 495.951 387.583 494.384 386.853C493.456 383.636 496.931 378.025 498.554 374.736Z"/><path fill="#FEFEFE" d="M943.901 270.419L944.354 270.933C945.108 276.124 920.137 375.748 917.3 387.386L884.732 521.536L846.044 681.154C838.347 713.134 831.186 745.712 822.617 777.432C807.122 752.266 791.681 724.465 776.603 698.733C762.51 676.139 749.233 651.88 735.736 628.854C722.622 606.48 709.359 584.143 697.07 561.315C709.541 544.703 729.002 523.277 742.831 507L829.82 404.354L906.41 313.864C917.594 300.732 931.957 282.118 943.901 270.419Z"/><path fill="#FEFEFE" d="M79.5137 269.8C83.228 272.157 102.219 295.556 106.287 300.398L153.906 356.938L262.827 485.616C284.589 511.28 306.147 535.22 326.755 561.972C318.934 577.348 308.041 594.281 299.212 609.369L247.456 698.106C232.208 724.297 216.974 750.963 201.435 776.946C198.006 765.721 194.646 751.222 191.804 739.726L175.517 672.436L130.593 485.864L96.2661 342.567L86.2416 300.94C83.739 290.613 80.9452 280.32 79.5137 269.8Z"/></svg>